<svg width="48" height="48" viewBox="0 0 48 48" fill="none" xmlns="http://www.w3.org/2000/svg">
<rect width="48" height="48" rx="24" fill="#0166FF"/>
<path d="M31 19.1962V18.5C31 15.365 26.2712 13 20 13C13.7288 13 9 15.365 9 18.5V23.5C9 26.1112 12.2812 28.1863 17 28.8075V29.5C17 32.635 21.7288 35 28 35C34.2712 35 39 32.635 39 29.5V24.5C39 21.9125 35.8225 19.835 31 19.1962ZM15 26.3587C12.5512 25.675 11 24.5487 11 23.5V21.7413C12.02 22.4637 13.3863 23.0463 15 23.4375V26.3587ZM25 23.4375C26.6138 23.0463 27.98 22.4637 29 21.7413V23.5C29 24.5487 27.4487 25.675 25 26.3587V23.4375ZM23 32.3587C20.5513 31.675 19 30.5487 19 29.5V28.9788C19.3287 28.9913 19.6613 29 20 29C20.485 29 20.9587 28.9837 21.4237 28.9562C21.9403 29.1412 22.4665 29.2981 23 29.4263V32.3587ZM23 26.7812C22.0068 26.928 21.004 27.0011 20 27C18.996 27.0011 17.9932 26.928 17 26.7812V23.8075C17.9947 23.9371 18.9969 24.0014 20 24C21.0031 24.0014 22.0053 23.9371 23 23.8075V26.7812ZM31 32.7812C29.0106 33.0729 26.9894 33.0729 25 32.7812V29.8C25.9944 29.9337 26.9967 30.0005 28 30C29.0031 30.0014 30.0053 29.9371 31 29.8075V32.7812ZM37 29.5C37 30.5487 35.4487 31.675 33 32.3587V29.4375C34.6138 29.0462 35.98 28.4637 37 27.7412V29.5Z" fill="white"/>
</svg>
