<svg width="156" height="156" viewBox="0 0 156 156" fill="none" xmlns="http://www.w3.org/2000/svg">
<path d="M78 16C86.142 16 94.2042 17.6037 101.726 20.7195C109.249 23.8353 116.083 28.4022 121.841 34.1594C127.598 39.9166 132.165 46.7514 135.281 54.2736C138.396 61.7958 140 69.8581 140 78C140 86.142 138.396 94.2042 135.281 101.726C132.165 109.249 127.598 116.083 121.841 121.841C116.083 127.598 109.249 132.165 101.726 135.281C94.2042 138.396 86.1419 140 78 140C69.858 140 61.7958 138.396 54.2736 135.281C46.7514 132.165 39.9166 127.598 34.1594 121.841C28.4021 116.083 23.8352 109.249 20.7195 101.726C17.6037 94.2042 16 86.1419 16 78C16 69.858 17.6037 61.7958 20.7195 54.2736C23.8353 46.7514 28.4022 39.9166 34.1594 34.1594C39.9166 28.4021 46.7515 23.8352 54.2737 20.7195C61.7959 17.6037 69.8581 16 78 16L78 16Z" stroke="#1C64F2" stroke-width="32"/>
<path d="M16 78C16 69.8581 17.6037 61.7958 20.7195 54.2736C23.8353 46.7514 28.4021 39.9166 34.1594 34.1594C39.9166 28.4021 46.7514 23.8353 54.2736 20.7195C61.7958 17.6037 69.858 16 78 16" stroke="#E74694" stroke-width="32"/>
<path d="M47 131.694C37.5748 126.252 29.7481 118.425 24.3064 109C18.8648 99.5748 16 88.8833 16 78" stroke="#FDBA8C" stroke-width="32"/>
<path d="M137.887 94.0468C135.426 103.233 130.884 111.729 124.614 118.879C118.344 126.029 110.512 131.641 101.726 135.281C92.9402 138.92 83.4347 140.489 73.945 139.867C64.4553 139.245 55.2359 136.449 47 131.694" stroke="#16BDCA" stroke-width="32"/>
<path d="M131.694 47C135.765 54.0511 138.407 61.8351 139.47 69.9074C140.532 77.9797 139.995 86.1823 137.887 94.0468" stroke="#F2901C" stroke-width="32"/>
</svg>
