<svg width="24" height="24" viewBox="0 0 24 24" fill="none" xmlns="http://www.w3.org/2000/svg">
<path d="M20.25 3.74996V21C20.25 21.1989 20.171 21.3896 20.0303 21.5303C19.8897 21.6709 19.6989 21.75 19.5 21.75C19.3011 21.75 19.1103 21.6709 18.9697 21.5303C18.829 21.3896 18.75 21.1989 18.75 21V16.5H14.25C14.0511 16.5 13.8603 16.4209 13.7197 16.2803C13.579 16.1396 13.5 15.9489 13.5 15.75C13.5348 13.9534 13.7617 12.1657 14.1769 10.4175C15.0938 6.62152 16.8319 4.07715 19.2047 3.0609C19.3187 3.01205 19.4431 2.99225 19.5667 3.00328C19.6903 3.01432 19.8092 3.05584 19.9128 3.12412C20.0164 3.19241 20.1014 3.28532 20.1603 3.39455C20.2191 3.50377 20.2499 3.62589 20.25 3.74996ZM11.2397 3.62715C11.225 3.52867 11.1908 3.4341 11.1392 3.34896C11.0876 3.26381 11.0195 3.1898 10.939 3.13124C10.8585 3.07267 10.7671 3.03073 10.6702 3.00786C10.5733 2.98498 10.4728 2.98163 10.3746 2.998C10.2764 3.01437 10.1824 3.05013 10.0982 3.1032C10.0139 3.15627 9.94107 3.22558 9.88389 3.30709C9.82671 3.38861 9.78634 3.48069 9.76512 3.57797C9.7439 3.67526 9.74227 3.77579 9.76031 3.87371L10.4897 8.24996H8.25V3.74996C8.25 3.55105 8.17098 3.36028 8.03033 3.21963C7.88968 3.07898 7.69891 2.99996 7.5 2.99996C7.30109 2.99996 7.11032 3.07898 6.96967 3.21963C6.82902 3.36028 6.75 3.55105 6.75 3.74996V8.24996H4.51031L5.23969 3.87371C5.25773 3.77579 5.2561 3.67526 5.23488 3.57797C5.21366 3.48069 5.17329 3.38861 5.11611 3.30709C5.05893 3.22558 4.98609 3.15627 4.90184 3.1032C4.81759 3.05013 4.72362 3.01437 4.62541 2.998C4.52719 2.98163 4.4267 2.98498 4.32979 3.00786C4.23289 3.03073 4.14151 3.07267 4.06098 3.13124C3.98045 3.1898 3.9124 3.26381 3.86077 3.34896C3.80915 3.4341 3.775 3.52867 3.76031 3.62715L3.01031 8.12715C3.00358 8.16774 3.00013 8.20881 3 8.24996C3.0015 9.31291 3.37867 10.3411 4.06488 11.1529C4.75108 11.9647 5.70214 12.5078 6.75 12.6862V21C6.75 21.1989 6.82902 21.3896 6.96967 21.5303C7.11032 21.6709 7.30109 21.75 7.5 21.75C7.69891 21.75 7.88968 21.6709 8.03033 21.5303C8.17098 21.3896 8.25 21.1989 8.25 21V12.6862C9.29786 12.5078 10.2489 11.9647 10.9351 11.1529C11.6213 10.3411 11.9985 9.31291 12 8.24996C11.9999 8.20881 11.9964 8.16774 11.9897 8.12715L11.2397 3.62715Z" fill="#FB8A22"/>
</svg>
