<svg width="94" height="36" viewBox="0 0 94 36" fill="none" xmlns="http://www.w3.org/2000/svg">
<path d="M22.1294 14.0263V6.24854H14.1823V14.0263H6.23505V21.9735H14.1823V29.7513H22.1294V21.9735H30.0766V14.0263H22.1294ZM22.1294 21.8041H14.1823V14.1969H22.1294V21.8041Z" fill="#0166FF"/>
<path d="M47.1671 17.6325H54.7556V24.0752C53.2206 25.567 50.8857 26.3453 48.1616 26.3453C42.8647 26.3453 39.5353 23.2969 39.5353 18.3892C39.5353 13.4815 42.8647 10.4115 47.8373 10.4115C50.6046 10.4115 52.7017 11.2547 54.1719 12.6167L52.2477 14.7787C51.21 13.8706 49.6317 13.2869 47.8589 13.2869C44.7673 13.2869 42.7134 15.2543 42.7134 18.3892C42.7134 21.6322 44.8537 23.5347 48.2697 23.5347C49.6317 23.5347 50.8641 23.2969 51.8802 22.5402V20.3133H47.1671V17.6325Z" fill="black"/>
<path d="M68.4901 20.1404C68.4901 20.335 68.4901 20.789 68.4685 21.0268H59.3017C59.626 22.778 60.8367 23.7725 62.7825 23.7725C64.1661 23.7725 65.3985 23.2536 66.1984 22.2591L68.0793 23.859C66.9983 25.3508 65.2688 26.2804 62.5663 26.2804C58.6099 26.2804 56.2749 23.859 56.2749 20.0971C56.2749 16.3569 58.8044 13.9139 62.4149 13.9139C66.4795 13.9139 68.4901 16.5083 68.4901 20.1404ZM62.4149 16.4002C60.9016 16.4002 59.6908 17.1569 59.3233 18.8648H65.5714C65.3985 17.5676 64.4688 16.4002 62.4149 16.4002Z" fill="black"/>
<path d="M70.4359 26.0426V9.65479H73.4194V26.0426H70.4359Z" fill="black"/>
<path d="M81.3221 26.302C77.863 26.302 75.6145 23.9022 75.6145 20.1188C75.6145 16.3353 77.8846 13.9571 81.1924 13.9571C82.4031 13.9571 83.8517 14.303 84.8245 15.2543V9.65479H87.7648V26.0426H84.8678V24.8967C83.9381 26.021 82.468 26.302 81.3221 26.302ZM81.9707 23.6212C83.095 23.6212 84.2624 23.1672 84.8678 22.0646V18.1514C84.2624 17.1785 83.0517 16.638 81.9059 16.638C80.0249 16.638 78.6845 17.8919 78.6845 20.1188C78.6845 22.3024 79.9817 23.6212 81.9707 23.6212Z" fill="black"/>
</svg>
