<svg width="24" height="24" viewBox="0 0 24 24" fill="none" xmlns="http://www.w3.org/2000/svg">
<path d="M23.2117 5.73938L18.3592 3.09375C18.2493 3.03292 18.1258 3.00068 18.0002 3H15.0002C14.8013 3 14.6105 3.07902 14.4699 3.21967C14.3292 3.36032 14.2502 3.55109 14.2502 3.75C14.2502 4.34674 14.0131 4.91903 13.5912 5.34099C13.1692 5.76295 12.5969 6 12.0002 6C11.4034 6 10.8311 5.76295 10.4092 5.34099C9.98724 4.91903 9.75018 4.34674 9.75018 3.75C9.75018 3.55109 9.67116 3.36032 9.53051 3.21967C9.38986 3.07902 9.19909 3 9.00018 3H6.00018C5.87421 3.00052 5.7504 3.03276 5.64018 3.09375L0.78862 5.73938C0.442777 5.92214 0.183525 6.2346 0.0677107 6.60823C-0.0481038 6.98186 -0.0110284 7.38617 0.170807 7.7325L1.97737 11.1834C2.10873 11.4315 2.30562 11.6389 2.54663 11.7828C2.78764 11.9268 3.06352 12.0019 3.34424 12H5.25018V19.5C5.25018 19.8978 5.40822 20.2794 5.68952 20.5607C5.97083 20.842 6.35236 21 6.75018 21H17.2502C17.648 21 18.0295 20.842 18.3108 20.5607C18.5921 20.2794 18.7502 19.8978 18.7502 19.5V12H20.6571C20.9378 12.0019 21.2137 11.9268 21.4547 11.7828C21.6957 11.6389 21.8926 11.4315 22.0239 11.1834L23.8305 7.7325C24.0123 7.38605 24.0492 6.98165 23.9332 6.60801C23.8172 6.23437 23.5577 5.92198 23.2117 5.73938ZM3.34424 10.5C3.33039 10.5007 3.31676 10.4963 3.30581 10.4878L1.50862 7.05562L5.25018 5.01375V10.5H3.34424ZM20.6946 10.4869C20.6894 10.4916 20.6833 10.4951 20.6767 10.4974C20.6701 10.4996 20.6631 10.5005 20.6561 10.5H18.7502V5.01375L22.4927 7.05562L20.6946 10.4869Z" fill="#6F6CF3"/>
</svg>
