<svg width="48" height="48" viewBox="0 0 48 48" fill="none" xmlns="http://www.w3.org/2000/svg">
<rect width="48" height="48" rx="24" fill="#0166FF"/>
<path d="M29 24C29 24.9889 28.7068 25.9556 28.1573 26.7779C27.6079 27.6001 26.827 28.241 25.9134 28.6194C24.9998 28.9978 23.9945 29.0969 23.0245 28.9039C22.0546 28.711 21.1637 28.2348 20.4645 27.5355C19.7652 26.8363 19.289 25.9454 19.0961 24.9755C18.9031 24.0055 19.0022 23.0002 19.3806 22.0866C19.759 21.173 20.3999 20.3921 21.2221 19.8427C22.0444 19.2932 23.0111 19 24 19C25.3261 19 26.5979 19.5268 27.5355 20.4645C28.4732 21.4021 29 22.6739 29 24ZM39 16V32C39 32.2652 38.8946 32.5196 38.7071 32.7071C38.5196 32.8946 38.2652 33 38 33H10C9.73478 33 9.48043 32.8946 9.29289 32.7071C9.10536 32.5196 9 32.2652 9 32V16C9 15.7348 9.10536 15.4804 9.29289 15.2929C9.48043 15.1054 9.73478 15 10 15H38C38.2652 15 38.5196 15.1054 38.7071 15.2929C38.8946 15.4804 39 15.7348 39 16ZM37 21.7937C35.8645 21.458 34.8311 20.8435 33.9938 20.0062C33.1565 19.1689 32.542 18.1355 32.2062 17H15.7937C15.458 18.1355 14.8435 19.1689 14.0062 20.0062C13.1689 20.8435 12.1355 21.458 11 21.7937V26.2062C12.1355 26.542 13.1689 27.1565 14.0062 27.9938C14.8435 28.8311 15.458 29.8645 15.7937 31H32.2062C32.542 29.8645 33.1565 28.8311 33.9938 27.9938C34.8311 27.1565 35.8645 26.542 37 26.2062V21.7937Z" fill="white"/>
</svg>
