<svg width="12" height="21" viewBox="0 0 12 21" fill="none" xmlns="http://www.w3.org/2000/svg">
<path d="M7.26922 1.00153C7.68153 0.6826 8.27432 0.758301 8.59324 1.17061C13.1419 7.05112 13.1289 14.744 8.59446 20.632C8.27641 21.045 7.68378 21.122 7.27079 20.8039C6.85781 20.4859 6.78084 19.8932 7.09889 19.4802C11.1125 14.2686 11.1207 7.52342 7.10013 2.32556C6.7812 1.91324 6.85691 1.32046 7.26922 1.00153Z" fill="white"/>
<path d="M3.50225 3.4362C3.91429 3.11692 4.50714 3.19212 4.82642 3.60416C8.23847 8.00755 8.2246 13.7872 4.8281 18.1969C4.51002 18.6098 3.91739 18.6867 3.50442 18.3687C3.09146 18.0506 3.01454 17.458 3.33262 17.045C6.20889 13.3107 6.21629 8.4797 3.33429 4.76037C3.01501 4.34833 3.09021 3.75548 3.50225 3.4362Z" fill="white"/>
<path d="M1.69184 6.95606C1.37391 6.54297 0.78131 6.46583 0.368224 6.78375C-0.0448621 7.10168 -0.122005 7.69428 0.19592 8.10737C1.49894 9.8004 1.50682 11.9748 0.196354 13.6748C-0.121881 14.0877 -0.0451847 14.6803 0.367662 14.9986C0.780508 15.3168 1.37317 15.2401 1.6914 14.8273C3.52796 12.4447 3.51458 9.32438 1.69184 6.95606Z" fill="white"/>
</svg>
