<svg width="18" height="19" viewBox="0 0 18 19" fill="none" xmlns="http://www.w3.org/2000/svg">
<path d="M18 8.83293V17.5001C18 17.8979 17.842 18.2795 17.5607 18.5608C17.2794 18.8421 16.8978 19.0001 16.5 19.0001H12.75C12.3522 19.0001 11.9706 18.8421 11.6893 18.5608C11.408 18.2795 11.25 17.8979 11.25 17.5001V13.7501C11.25 13.5512 11.171 13.3604 11.0303 13.2198C10.8897 13.0791 10.6989 13.0001 10.5 13.0001H7.5C7.30109 13.0001 7.11032 13.0791 6.96967 13.2198C6.82902 13.3604 6.75 13.5512 6.75 13.7501V17.5001C6.75 17.8979 6.59196 18.2795 6.31066 18.5608C6.02936 18.8421 5.64782 19.0001 5.25 19.0001H1.5C1.10218 19.0001 0.720644 18.8421 0.43934 18.5608C0.158035 18.2795 1.73323e-08 17.8979 1.73323e-08 17.5001V8.83293C-3.15402e-05 8.62533 0.0430305 8.41998 0.126461 8.22988C0.209891 8.03978 0.331873 7.86907 0.484687 7.72855L7.98469 0.652302L7.995 0.64199C8.27113 0.390864 8.63097 0.251709 9.00422 0.251709C9.37747 0.251709 9.7373 0.390864 10.0134 0.64199C10.0166 0.645658 10.0201 0.649103 10.0238 0.652302L17.5238 7.72855C17.675 7.86981 17.7954 8.04086 17.8774 8.23092C17.9594 8.42098 18.0011 8.62595 18 8.83293Z" fill="#0166FF"/>
</svg>
