<svg width="81" height="30" viewBox="0 0 81 30" fill="none" xmlns="http://www.w3.org/2000/svg">
<path d="M18.5348 11.4716V4.70337H11.6192V11.4716H4.70343V18.3873H11.6192V25.1556H18.5348V18.3873H25.4506V11.4716H18.5348ZM18.5348 18.2399H11.6192V11.6201H18.5348V18.2399Z" fill="white"/>
<path d="M40.3228 14.6097H46.9264V20.2162C45.5907 21.5144 43.5588 22.1917 41.1883 22.1917C36.5789 22.1917 33.6816 19.5389 33.6816 15.2682C33.6816 10.9975 36.5789 8.32596 40.906 8.32596C43.3142 8.32596 45.1391 9.05969 46.4185 10.245L44.7441 12.1263C43.841 11.3362 42.4676 10.8282 40.9249 10.8282C38.2345 10.8282 36.4472 12.5402 36.4472 15.2682C36.4472 18.0903 38.3098 19.7459 41.2823 19.7459C42.4676 19.7459 43.54 19.5389 44.4242 18.8804V16.9426H40.3228V14.6097Z" fill="white"/>
<path d="M58.8783 16.7921C58.8783 16.9614 58.8783 17.3565 58.8595 17.5635H50.8825C51.1647 19.0874 52.2182 19.9528 53.9115 19.9528C55.1156 19.9528 56.1879 19.5013 56.884 18.6359L58.5208 20.0281C57.5802 21.3262 56.0751 22.1352 53.7233 22.1352C50.2804 22.1352 48.2485 20.0281 48.2485 16.7545C48.2485 13.4997 50.4498 11.3738 53.5916 11.3738C57.1286 11.3738 58.8783 13.6314 58.8783 16.7921ZM53.5916 13.5374C52.2747 13.5374 51.2211 14.1958 50.9013 15.6821H56.3384C56.1879 14.5533 55.3789 13.5374 53.5916 13.5374Z" fill="white"/>
<path d="M60.5715 21.9283V7.66748H63.1678V21.9283H60.5715Z" fill="white"/>
<path d="M70.0448 22.154C67.0346 22.154 65.078 20.0657 65.078 16.7733C65.078 13.4809 67.0534 11.4114 69.9319 11.4114C70.9855 11.4114 72.246 11.7124 73.0927 12.5402V7.66748H75.6513V21.9283H73.1303V20.9311C72.3213 21.9095 71.042 22.154 70.0448 22.154ZM70.6092 19.8211C71.5876 19.8211 72.6035 19.426 73.1303 18.4665V15.0613C72.6035 14.2146 71.5499 13.7443 70.5528 13.7443C68.916 13.7443 67.7496 14.8355 67.7496 16.7733C67.7496 18.6735 68.8784 19.8211 70.6092 19.8211Z" fill="white"/>
</svg>
