<svg width="24" height="24" viewBox="0 0 24 24" fill="none" xmlns="http://www.w3.org/2000/svg">
<path d="M19.2496 8.96906L17.2087 2.03812C17.1629 1.88284 17.0682 1.74652 16.9386 1.64953C16.809 1.55254 16.6515 1.50008 16.4896 1.5H7.51022C7.34834 1.50008 7.19083 1.55254 7.06123 1.64953C6.93163 1.74652 6.83688 1.88284 6.79115 2.03812L4.75022 8.96906C4.43 10.0314 4.41324 11.1621 4.70183 12.2335C4.99042 13.3048 5.57285 14.2741 6.38334 15.0319C7.71664 16.282 9.42961 17.0506 11.2499 17.2153V21H8.2499C8.05099 21 7.86023 21.079 7.71957 21.2197C7.57892 21.3603 7.4999 21.5511 7.4999 21.75C7.4999 21.9489 7.57892 22.1397 7.71957 22.2803C7.86023 22.421 8.05099 22.5 8.2499 22.5H15.7499C15.9488 22.5 16.1396 22.421 16.2802 22.2803C16.4209 22.1397 16.4999 21.9489 16.4999 21.75C16.4999 21.5511 16.4209 21.3603 16.2802 21.2197C16.1396 21.079 15.9488 21 15.7499 21H12.7499V17.2153C14.5702 17.0507 16.2832 16.2822 17.6165 15.0319C18.4268 14.274 19.0091 13.3047 19.2977 12.2334C19.5862 11.1621 19.5696 10.0314 19.2496 8.96906ZM8.07084 3H15.929L17.8124 9.39281C17.8208 9.42094 17.8283 9.44906 17.8358 9.47719C15.8277 10.1972 13.5665 9.32719 12.3393 8.70563C9.97771 7.51031 8.10272 7.35844 6.7199 7.58719L8.07084 3Z" fill="#A804AB"/>
</svg>
